<svg width="211.0" height="120" xmlns="http://www.w3.org/2000/svg"><style> .day { font: 10px sans-serif; fill: #aaa; } .month { font: 10px sans-serif; fill: #aaa; } </style><rect width="210.0" height="119" rx="4" ry="4" fill="none" stroke="#ddd" stroke-width="1"/><rect x="30" y="20" width="10" height="10" fill="#ebedf0" rx="2" ry="2"/><rect x="30" y="32" width="10" height="10" fill="#ebedf0" rx="2" ry="2"/><rect x="42" y="20" width="10" height="10" fill="#ebedf0" rx="2" ry="2"/><rect x="42" y="32" width="10" height="10" fill="#ebedf0" rx="2" ry="2"/><rect x="42" y="44" width="10" height="10" fill="#ebedf0" rx="2" ry="2"/><rect x="42" y="56" width="10" height="10" fill="#ebedf0" rx="2" ry="2"/><rect x="42" y="68" width="10" height="10" fill="#ebedf0" rx="2" ry="2"/><rect x="42" y="80" width="10" height="10" fill="#ebedf0" rx="2" ry="2"/><rect x="42" y="92" width="10" height="10" fill="#ebedf0" rx="2" ry="2"/><rect x="54" y="20" width="10" height="10" fill="#ebedf0" rx="2" ry="2"/><rect x="54" y="32" width="10" height="10" fill="#ebedf0" rx="2" ry="2"/><rect x="54" y="44" width="10" height="10" fill="#ebedf0" rx="2" ry="2"/><rect x="54" y="56" width="10" height="10" fill="#ebedf0" rx="2" ry="2"/><rect x="54" y="68" width="10" height="10" fill="#ebedf0" rx="2" ry="2"/><rect x="54" y="80" width="10" height="10" fill="#ebedf0" rx="2" ry="2"/><rect x="54" y="92" width="10" height="10" fill="#ebedf0" rx="2" ry="2"/><rect x="66" y="20" width="10" height="10" fill="#ebedf0" rx="2" ry="2"/><rect x="66" y="32" width="10" height="10" fill="#ebedf0" rx="2" ry="2"/><rect x="66" y="44" width="10" height="10" fill="#ebedf0" rx="2" ry="2"/><rect x="66" y="56" width="10" height="10" fill="#ebedf0" rx="2" ry="2"/><rect x="66" y="68" width="10" height="10" fill="#ebedf0" rx="2" ry="2"/><rect x="66" y="80" width="10" height="10" fill="#ebedf0" rx="2" ry="2"/><rect x="66" y="92" width="10" height="10" fill="#ebedf0" rx="2" ry="2"/><rect x="78" y="20" width="10" height="10" fill="#ebedf0" rx="2" ry="2"/><rect x="78" y="32" width="10" height="10" fill="#ebedf0" rx="2" ry="2"/><rect x="78" y="44" width="10" height="10" fill="#ebedf0" rx="2" ry="2"/><rect x="78" y="56" width="10" height="10" fill="#ebedf0" rx="2" ry="2"/><rect x="78" y="68" width="10" height="10" fill="#ebedf0" rx="2" ry="2"/><rect x="78" y="80" width="10" height="10" fill="#ebedf0" rx="2" ry="2"/><rect x="78" y="92" width="10" height="10" fill="#ebedf0" rx="2" ry="2"/><rect x="90" y="20" width="10" height="10" fill="#ebedf0" rx="2" ry="2"/><rect x="90" y="32" width="10" height="10" fill="#ebedf0" rx="2" ry="2"/><rect x="90" y="44" width="10" height="10" fill="#ebedf0" rx="2" ry="2"/><rect x="90" y="56" width="10" height="10" fill="#ebedf0" rx="2" ry="2"/><rect x="90" y="68" width="10" height="10" fill="#ebedf0" rx="2" ry="2"/><rect x="90" y="80" width="10" height="10" fill="#ebedf0" rx="2" ry="2"/><rect x="90" y="92" width="10" height="10" fill="#ebedf0" rx="2" ry="2"/><rect x="102" y="20" width="10" height="10" fill="#ebedf0" rx="2" ry="2"/><rect x="102" y="32" width="10" height="10" fill="#ebedf0" rx="2" ry="2"/><rect x="102" y="44" width="10" height="10" fill="#ebedf0" rx="2" ry="2"/><rect x="102" y="56" width="10" height="10" fill="#ebedf0" rx="2" ry="2"/><rect x="102" y="68" width="10" height="10" fill="#ebedf0" rx="2" ry="2"/><rect x="102" y="80" width="10" height="10" fill="#ebedf0" rx="2" ry="2"/><rect x="102" y="92" width="10" height="10" fill="#ebedf0" rx="2" ry="2"/><rect x="114" y="20" width="10" height="10" fill="#ebedf0" rx="2" ry="2"/><rect x="114" y="32" width="10" height="10" fill="#ebedf0" rx="2" ry="2"/><rect x="114" y="44" width="10" height="10" fill="#ebedf0" rx="2" ry="2"/><rect x="114" y="56" width="10" height="10" fill="#ebedf0" rx="2" ry="2"/><rect x="114" y="68" width="10" height="10" fill="#ebedf0" rx="2" ry="2"/><rect x="114" y="80" width="10" height="10" fill="#ebedf0" rx="2" ry="2"/><rect x="114" y="92" width="10" height="10" fill="#ebedf0" rx="2" ry="2"/><rect x="126" y="20" width="10" height="10" fill="#ebedf0" rx="2" ry="2"/><rect x="126" y="32" width="10" height="10" fill="#ebedf0" rx="2" ry="2"/><rect x="126" y="44" width="10" height="10" fill="#ebedf0" rx="2" ry="2"/><rect x="126" y="56" width="10" height="10" fill="#ebedf0" rx="2" ry="2"/><rect x="126" y="68" width="10" height="10" fill="#ebedf0" rx="2" ry="2"/><rect x="126" y="80" width="10" height="10" fill="#ebedf0" rx="2" ry="2"/><rect x="126" y="92" width="10" height="10" fill="#ebedf0" rx="2" ry="2"/><rect x="138" y="20" width="10" height="10" fill="#ebedf0" rx="2" ry="2"/><rect x="138" y="32" width="10" height="10" fill="#ebedf0" rx="2" ry="2"/><rect x="138" y="44" width="10" height="10" fill="#ebedf0" rx="2" ry="2"/><rect x="138" y="56" width="10" height="10" fill="#ebedf0" rx="2" ry="2"/><rect x="138" y="68" width="10" height="10" fill="#ebedf0" rx="2" ry="2"/><rect x="138" y="80" width="10" height="10" fill="#ebedf0" rx="2" ry="2"/><rect x="138" y="92" width="10" height="10" fill="#ebedf0" rx="2" ry="2"/><rect x="150" y="20" width="10" height="10" fill="#ebedf0" rx="2" ry="2"/><rect x="150" y="32" width="10" height="10" fill="#ebedf0" rx="2" ry="2"/><rect x="150" y="44" width="10" height="10" fill="#ebedf0" rx="2" ry="2"/><rect x="150" y="56" width="10" height="10" fill="#ebedf0" rx="2" ry="2"/><rect x="150" y="68" width="10" height="10" fill="#ebedf0" rx="2" ry="2"/><rect x="150" y="80" width="10" height="10" fill="#ebedf0" rx="2" ry="2"/><rect x="150" y="92" width="10" height="10" fill="#ebedf0" rx="2" ry="2"/><rect x="162" y="20" width="10" height="10" fill="#ebedf0" rx="2" ry="2"/><rect x="162" y="32" width="10" height="10" fill="#ebedf0" rx="2" ry="2"/><rect x="162" y="44" width="10" height="10" fill="#ebedf0" rx="2" ry="2"/><rect x="162" y="56" width="10" height="10" fill="#ebedf0" rx="2" ry="2"/><rect x="162" y="68" width="10" height="10" fill="#ebedf0" rx="2" ry="2"/><rect x="162" y="80" width="10" height="10" fill="#ebedf0" rx="2" ry="2"/><rect x="162" y="92" width="10" height="10" fill="#ebedf0" rx="2" ry="2"/><rect x="174" y="20" width="10" height="10" fill="#ebedf0" rx="2" ry="2"/><rect x="174" y="32" width="10" height="10" fill="#ebedf0" rx="2" ry="2"/><rect x="174" y="44" width="10" height="10" fill="#196127" rx="2" ry="2"/><rect x="174" y="56" width="10" height="10" fill="#ebedf0" rx="2" ry="2"/><rect x="174" y="68" width="10" height="10" fill="#ebedf0" rx="2" ry="2"/><rect x="174" y="80" width="10" height="10" fill="#ebedf0" rx="2" ry="2"/><rect x="174" y="92" width="10" height="10" fill="#ebedf0" rx="2" ry="2"/><rect x="186" y="20" width="10" height="10" fill="#ebedf0" rx="2" ry="2"/><rect x="186" y="32" width="10" height="10" fill="#ebedf0" rx="2" ry="2"/><rect x="186" y="44" width="10" height="10" fill="#ebedf0" rx="2" ry="2"/><rect x="186" y="56" width="10" height="10" fill="#ebedf0" rx="2" ry="2"/><text x="78" y="15" class="month">Apr</text><text x="126" y="15" class="month">May</text><text x="5" y="30.0" class="day">Mon</text><text x="5" y="53.4" class="day">Wed</text><text x="5" y="76.8" class="day">Fri</text><text x="5" y="100.19999999999999" class="day">Sun</text></svg>